<svg xmlns="http://www.w3.org/2000/svg" viewBox="-36 -36 584 592">
  <defs>
    <linearGradient id="o" x1="74" y1="438" x2="420" y2="48" gradientUnits="userSpaceOnUse">
      <stop offset="0" stop-color="#ff8a2a"/>
      <stop offset="0.5" stop-color="#ff6000"/>
      <stop offset="1" stop-color="#ffb15c"/>
    </linearGradient>
  </defs>
  <rect x="-36" y="-36" width="584" height="592" rx="116" fill="#050506"/>
  <path fill="url(#o)" d="M232.7 48.3c13.9 0 25.3 10.4 27 24.2 16.5 132.7 54.3 170.5 187 187 13.8 1.7 24.2 13.1 24.2 27s-10.4 25.3-24.2 27c-132.7 16.5-170.5 54.3-187 187-1.7 13.8-13.1 24.2-27 24.2s-25.3-10.4-27-24.2c-16.5-132.7-54.3-170.5-187-187-13.8-1.7-24.2-13.1-24.2-27s10.4-25.3 24.2-27c132.7-16.5 170.5-54.3 187-187 1.7-13.8 13.1-24.2 27-24.2Zm0 111.2c-24.2 73.2-53.8 102.8-127 127 73.2 24.2 102.8 53.8 127 127 24.2-73.2 53.8-102.8 127-127-73.2-24.2-102.8-53.8-127-127Z"/>
  <path fill="url(#o)" d="M405.2 86.2c9.7 0 17.6 7.2 18.7 16.9 4.5 39.9 15.2 50.6 55.1 55.1 9.7 1.1 16.9 9 16.9 18.7s-7.2 17.6-16.9 18.7c-39.9 4.5-50.6 15.2-55.1 55.1-1.1 9.7-9 16.9-18.7 16.9s-17.6-7.2-18.7-16.9c-4.5-39.9-15.2-50.6-55.1-55.1-9.7-1.1-16.9-9-16.9-18.7s7.2-17.6 16.9-18.7c39.9-4.5 50.6-15.2 55.1-55.1 1.1-9.7 9-16.9 18.7-16.9Z"/>
</svg>
