<svg xmlns="http://www.w3.org/2000/svg" viewBox="0 0 512 512" width="512" height="512" role="img" aria-labelledby="title">
  <title id="title">LOVIX logo</title>
  <defs>
    <radialGradient id="surfaceGlow" cx="38%" cy="36%" r="72%">
      <stop offset="0%" stop-color="#15100d"/>
      <stop offset="58%" stop-color="#08080a"/>
      <stop offset="100%" stop-color="#030304"/>
    </radialGradient>
    <linearGradient id="rim" x1="18%" y1="85%" x2="86%" y2="12%">
      <stop offset="0%" stop-color="#fb7b22" stop-opacity="0.38"/>
      <stop offset="42%" stop-color="#2a201b" stop-opacity="0.9"/>
      <stop offset="100%" stop-color="#09090b" stop-opacity="0.95"/>
    </linearGradient>
    <linearGradient id="spark" x1="20%" y1="10%" x2="92%" y2="86%">
      <stop offset="0%" stop-color="#ffb24a"/>
      <stop offset="44%" stop-color="#ff8b1f"/>
      <stop offset="100%" stop-color="#ff5d16"/>
    </linearGradient>
    <filter id="softGlow" x="-80%" y="-80%" width="260%" height="260%">
      <feGaussianBlur stdDeviation="12" result="blur"/>
      <feColorMatrix in="blur" type="matrix" values="1 0 0 0 1  0 0.42 0 0 0.32  0 0 0.05 0 0.08  0 0 0 0.75 0"/>
      <feMerge>
        <feMergeNode/>
        <feMergeNode in="SourceGraphic"/>
      </feMerge>
    </filter>
  </defs>

  <rect width="512" height="512" rx="256" fill="#050506"/>
  <circle cx="256" cy="256" r="244" fill="url(#surfaceGlow)" stroke="url(#rim)" stroke-width="12"/>
  <circle cx="256" cy="256" r="232" fill="none" stroke="#2a1b12" stroke-width="2" opacity="0.42"/>

  <g fill="url(#spark)" filter="url(#softGlow)">
    <path d="M216 132c5.4 52.4 22.8 69.8 75.2 75.2C238.8 212.6 221.4 230 216 282.4c-5.4-52.4-22.8-69.8-75.2-75.2C193.2 201.8 210.6 184.4 216 132Z"/>
    <path d="M337 86c3.1 28.3 12.4 37.6 40.7 40.7-28.3 3.1-37.6 12.4-40.7 40.7-3.1-28.3-12.4-37.6-40.7-40.7 28.3-3.1 37.6-12.4 40.7-40.7Z"/>
    <circle cx="321" cy="241" r="13"/>
  </g>
</svg>
