<svg xmlns="http://www.w3.org/2000/svg" viewBox="-28 -28 1016 300" role="img" aria-labelledby="title">
  <title id="title">LOVIX AI</title>
  <defs>
    <linearGradient id="lovix-orange" x1="14" y1="218" x2="884" y2="26" gradientUnits="userSpaceOnUse">
      <stop offset="0" stop-color="#ff8a2a"/>
      <stop offset="0.48" stop-color="#ff6000"/>
      <stop offset="1" stop-color="#ffb15c"/>
    </linearGradient>
    <filter id="glow" x="-30%" y="-60%" width="160%" height="220%">
      <feGaussianBlur stdDeviation="5" result="blur"/>
      <feColorMatrix in="blur" type="matrix" values="1 0 0 0 1 0 0.34 0 0 0.26 0 0 0 0 0 0 0 0 0.48 0"/>
      <feMerge>
        <feMergeNode/>
        <feMergeNode in="SourceGraphic"/>
      </feMerge>
    </filter>
  </defs>
  <rect x="-28" y="-28" width="1016" height="300" fill="transparent"/>
  <g fill="url(#lovix-orange)" filter="url(#glow)">
    <path d="M109.5 20.5c7 0 12.7 5.2 13.5 12.1 8.2 66.4 27.1 85.3 93.5 93.5 6.9.8 12.1 6.5 12.1 13.5s-5.2 12.7-12.1 13.5c-66.4 8.2-85.3 27.1-93.5 93.5-.8 6.9-6.5 12.1-13.5 12.1s-12.7-5.2-13.5-12.1c-8.2-66.4-27.1-85.3-93.5-93.5-6.9-.8-12.1-6.5-12.1-13.5s5.2-12.7 12.1-13.5c66.4-8.2 85.3-27.1 93.5-93.5.8-6.9 6.5-12.1 13.5-12.1Zm0 55.6c-12.1 36.6-26.9 51.4-63.5 63.5 36.6 12.1 51.4 26.9 63.5 63.5 12.1-36.6 26.9-51.4 63.5-63.5-36.6-12.1-51.4-26.9-63.5-63.5Z"/>
    <path d="M195.8 36.6c4.9 0 8.8 3.6 9.4 8.4 2.2 20 7.6 25.3 27.6 27.6 4.8.6 8.4 4.5 8.4 9.4s-3.6 8.8-8.4 9.4c-20 2.2-25.3 7.6-27.6 27.6-.6 4.8-4.5 8.4-9.4 8.4s-8.8-3.6-9.4-8.4c-2.2-20-7.6-25.3-27.6-27.6-4.8-.6-8.4-4.5-8.4-9.4s3.6-8.8 8.4-9.4c20-2.2 25.3-7.6 27.6-27.6.6-4.8 4.5-8.4 9.4-8.4Z"/>
    <path d="M38 184c4.1 0 7.3 3 7.8 7 1.6 13.3 5.3 17 18.6 18.6 4 .5 7 3.7 7 7.8s-3 7.3-7 7.8c-13.3 1.6-17 5.3-18.6 18.6-.5 4-3.7 7-7.8 7s-7.3-3-7.8-7c-1.6-13.3-5.3-17-18.6-18.6-4-.5-7-3.7-7-7.8s3-7.3 7-7.8c13.3-1.6 17-5.3 18.6-18.6.5-4 3.7-7 7.8-7Z"/>
  </g>
  <text x="285" y="166" fill="url(#lovix-orange)" font-family="Space Grotesk, Inter, Arial, sans-serif" font-size="132" font-weight="800" letter-spacing="0">Lovix AI</text>
</svg>
