<svg xmlns="http://www.w3.org/2000/svg" viewBox="-36 -36 584 592" role="img" aria-labelledby="title">
  <title id="title">LOVIX AI logo</title>
  <defs>
    <linearGradient id="lovix-orange" x1="74" y1="438" x2="420" y2="48" gradientUnits="userSpaceOnUse">
      <stop offset="0" stop-color="#ff8a2a"/>
      <stop offset="0.48" stop-color="#ff6000"/>
      <stop offset="1" stop-color="#ffb15c"/>
    </linearGradient>
    <filter id="glow" x="-60%" y="-60%" width="220%" height="220%">
      <feGaussianBlur stdDeviation="10" result="blur"/>
      <feColorMatrix in="blur" type="matrix" values="1 0 0 0 1 0 0.33 0 0 0.27 0 0 0 0 0 0 0 0 0.62 0"/>
      <feMerge>
        <feMergeNode/>
        <feMergeNode in="SourceGraphic"/>
      </feMerge>
    </filter>
  </defs>
  <rect x="-36" y="-36" width="584" height="592" fill="transparent"/>
  <g fill="url(#lovix-orange)" filter="url(#glow)">
    <path d="M232.7 48.3c13.9 0 25.3 10.4 27 24.2 16.5 132.7 54.3 170.5 187 187 13.8 1.7 24.2 13.1 24.2 27s-10.4 25.3-24.2 27c-132.7 16.5-170.5 54.3-187 187-1.7 13.8-13.1 24.2-27 24.2s-25.3-10.4-27-24.2c-16.5-132.7-54.3-170.5-187-187-13.8-1.7-24.2-13.1-24.2-27s10.4-25.3 24.2-27c132.7-16.5 170.5-54.3 187-187 1.7-13.8 13.1-24.2 27-24.2Zm0 111.2c-24.2 73.2-53.8 102.8-127 127 73.2 24.2 102.8 53.8 127 127 24.2-73.2 53.8-102.8 127-127-73.2-24.2-102.8-53.8-127-127Z"/>
    <path d="M405.2 86.2c9.7 0 17.6 7.2 18.7 16.9 4.5 39.9 15.2 50.6 55.1 55.1 9.7 1.1 16.9 9 16.9 18.7s-7.2 17.6-16.9 18.7c-39.9 4.5-50.6 15.2-55.1 55.1-1.1 9.7-9 16.9-18.7 16.9s-17.6-7.2-18.7-16.9c-4.5-39.9-15.2-50.6-55.1-55.1-9.7-1.1-16.9-9-16.9-18.7s7.2-17.6 16.9-18.7c39.9-4.5 50.6-15.2 55.1-55.1 1.1-9.7 9-16.9 18.7-16.9Z"/>
    <path d="M92.9 389.1c8.1 0 14.6 6 15.6 14 3.1 26.5 10.6 34 37.1 37.1 8 1 14 7.5 14 15.6s-6 14.6-14 15.6c-26.5 3.1-34 10.6-37.1 37.1-1 8-7.5 14-15.6 14s-14.6-6-15.6-14c-3.1-26.5-10.6-34-37.1-37.1-8-1-14-7.5-14-15.6s6-14.6 14-15.6c26.5-3.1 34-10.6 37.1-37.1 1-8 7.5-14 15.6-14Z"/>
  </g>
</svg>
